<?xml version="1.0" encoding="UTF-8"?>
<svg version="1.1" xmlns="http://www.w3.org/2000/svg" width="98" height="100">
<path d="M0 0 C32.34 0 64.68 0 98 0 C98 33 98 66 98 100 C65.66 100 33.32 100 0 100 C0 67 0 34 0 0 Z " fill="#FCFCFB" transform="translate(0,0)"/>
<path d="M0 0 C5.16154809 3.4121966 8.83743107 7.34814193 11.375 13 C14.70657104 33.98889758 7.81078465 54.13719238 -3 71.9375 C-5.23481527 74.96892572 -6.8505094 76.8378396 -10 78.9375 C-11.92602539 79.19628906 -11.92602539 79.19628906 -14.09765625 79.203125 C-14.89413574 79.20739502 -15.69061523 79.21166504 -16.51123047 79.21606445 C-17.35314941 79.20663818 -18.19506836 79.19721191 -19.0625 79.1875 C-19.92504395 79.18000732 -20.78758789 79.17251465 -21.67626953 79.16479492 C-27.65983018 79.06365636 -33.25808538 78.73833036 -39 76.9375 C-40.02222656 76.61910156 -41.04445313 76.30070312 -42.09765625 75.97265625 C-53.3003364 72.08119893 -64.24024896 65.56763684 -70.12890625 54.890625 C-71.27017058 52.33173637 -71.41617628 50.7120085 -71 47.9375 C-68.91612351 45.29500859 -67.70787572 44.08054769 -64.37109375 43.40625 C-56.86885573 43.48616732 -50.86241893 44.91155149 -44 47.9375 C-43.7525 47.15375 -43.505 46.37 -43.25 45.5625 C-42 41.9375 -42 41.9375 -41.046875 39.98046875 C-38.28693724 34.1001536 -37.60060589 28.76822885 -37.125 22.375 C-36.38867938 13.17588914 -34.15692406 7.99050096 -27.5 1.5 C-19.6298221 -3.41886119 -8.32429411 -4.29640987 0 0 Z " fill="#05060A" transform="translate(78,16.0625)"/>
<path d="M0 0 C5.16154809 3.4121966 8.83743107 7.34814193 11.375 13 C14.70657104 33.98889758 7.81078465 54.13719238 -3 71.9375 C-5.23481527 74.96892572 -6.8505094 76.8378396 -10 78.9375 C-12.0847168 79.16455078 -12.0847168 79.16455078 -14.44921875 79.1328125 C-15.72055664 79.12314453 -15.72055664 79.12314453 -17.01757812 79.11328125 C-17.89865234 79.09652344 -18.77972656 79.07976562 -19.6875 79.0625 C-20.58017578 79.05347656 -21.47285156 79.04445313 -22.39257812 79.03515625 C-24.59532314 79.01159748 -26.79752588 78.97870329 -29 78.9375 C-29 78.6075 -29 78.2775 -29 77.9375 C-21.08 77.4425 -21.08 77.4425 -13 76.9375 C-13.66 75.9475 -14.32 74.9575 -15 73.9375 C-14.25556641 72.66132813 -14.25556641 72.66132813 -13.49609375 71.359375 C-6.0045701 58.1425314 0.49591056 43.19717104 2 27.9375 C2.185625 26.1121875 2.185625 26.1121875 2.375 24.25 C1.71719413 18.43938145 -0.41577926 14.41119372 -4.6875 10.4375 C-8.96900564 8.49870499 -12.37560284 8.11556945 -17 8.9375 C-23.16128128 12.07626593 -26.76099136 16.46303334 -29 22.9375 C-29.29313591 24.91073897 -29.53986281 26.89120489 -29.75 28.875 C-30.82518164 36.34153913 -33.0816942 43.45073537 -37 49.9375 C-39.1953125 50.828125 -39.1953125 50.828125 -41 50.9375 C-40.57355565 47.44065637 -39.87926526 44.44636637 -38.4375 41.25 C-36.80095344 38.08065486 -36.80095344 38.08065486 -37 34.9375 C-37.99 35.4325 -37.99 35.4325 -39 35.9375 C-38.86722656 35.36644531 -38.73445313 34.79539063 -38.59765625 34.20703125 C-37.50810725 29.20464936 -36.91269437 24.49685974 -36.75 19.375 C-36.23009655 11.5021763 -33.03338684 6.89505217 -27.5 1.5 C-19.6298221 -3.41886119 -8.32429411 -4.29640987 0 0 Z " fill="#131418" transform="translate(78,16.0625)"/>
<path d="M0 0 C2.64971542 1.80662415 4.55620529 3.11241058 6 6 C6.80849237 22.43307754 6.80849237 22.43307754 4 30 C3.65839844 30.9590625 3.31679687 31.918125 2.96484375 32.90625 C0.04231241 40.79990379 -3.38227508 48.40402087 -7 56 C-10.10937051 54.56165174 -12.72400556 52.83802692 -15.4375 50.75 C-16.17871094 50.18796875 -16.91992188 49.6259375 -17.68359375 49.046875 C-20.47819337 46.57744802 -22.66965017 43.90985481 -25 41 C-24.59007812 40.05640625 -24.18015625 39.1128125 -23.7578125 38.140625 C-20.71655389 30.95689756 -18.54249716 24.43130279 -17.4765625 16.65625 C-16.19004655 9.48550538 -12.80932035 5.1675559 -7 1 C-4.39120333 -0.30439833 -2.90289827 -0.33754631 0 0 Z " fill="#2C2B50" transform="translate(69,29)"/>
<path d="M0 0 C4.12947178 0.45824496 7.30081484 1.60368137 11.0625 3.33984375 C11.0625 4.32984375 11.0625 5.31984375 11.0625 6.33984375 C13.35273991 8.09439745 13.35273991 8.09439745 16.25 9.71484375 C20.45577873 12.267578 23.82371807 14.65433328 27.0625 18.33984375 C22.52160073 16.65322402 18.65622682 14.33592301 14.5625 11.77734375 C12.11889899 10.37227317 9.70141571 9.32001244 7.0625 8.33984375 C7.0625 9.32984375 7.0625 10.31984375 7.0625 11.33984375 C7.78695313 11.45199219 8.51140625 11.56414062 9.2578125 11.6796875 C17.47707748 13.61430558 24.38003644 19.45569202 29.0625 26.33984375 C29.0625 26.99984375 29.0625 27.65984375 29.0625 28.33984375 C25.1025 28.33984375 21.1425 28.33984375 17.0625 28.33984375 C17.3925 29.65984375 17.7225 30.97984375 18.0625 32.33984375 C7.0871909 30.59741329 -2.8023033 23.86130248 -9.6015625 15.2265625 C-11.54105538 12.34982864 -12.80232216 10.00071319 -13.5 6.58984375 C-11.72623605 -0.50521205 -6.11464212 -0.18733585 0 0 Z " fill="#181934" transform="translate(19.9375,59.66015625)"/>
<path d="M0 0 C3.41047888 1.78801806 5.06651278 3.09660003 6.375 6.75 C7.54404863 11.83573383 7.55839693 16.87211798 7.5625 22.0625 C7.57474609 22.86623047 7.58699219 23.66996094 7.59960938 24.49804688 C7.62036055 33.09595006 5.89268381 40.47932183 2.125 48.1875 C1.66855103 49.14474976 1.66855103 49.14474976 1.20288086 50.12133789 C-1.41795992 55.52686449 -4.3778118 60.69485354 -7.625 65.75 C-8.12 64.76 -8.12 64.76 -8.625 63.75 C-7.63209616 61.23624345 -6.57846196 58.82056225 -5.4375 56.375 C3.80015642 36.67173968 3.80015642 36.67173968 3.6875 15.6875 C1.56249742 10.87082749 -0.69955622 7.98038964 -5.625 5.75 C-10.34994679 4.93564651 -13.6457519 5.25113776 -17.9375 7.4375 C-24.11152496 12.7500331 -26.52584009 17.6710261 -27.375 25.6875 C-28.45018164 33.15403913 -30.7066942 40.26323537 -34.625 46.75 C-36.8203125 47.640625 -36.8203125 47.640625 -38.625 47.75 C-38.19855565 44.25315637 -37.50426526 41.25886637 -36.0625 38.0625 C-34.42595344 34.89315486 -34.42595344 34.89315486 -34.625 31.75 C-35.615 32.245 -35.615 32.245 -36.625 32.75 C-36.49222656 32.17894531 -36.35945313 31.60789063 -36.22265625 31.01953125 C-34.68433154 23.95671195 -34.05435274 16.95860655 -33.625 9.75 C-33.295 9.75 -32.965 9.75 -32.625 9.75 C-32.625 14.04 -32.625 18.33 -32.625 22.75 C-31.965 22.75 -31.305 22.75 -30.625 22.75 C-30.71201172 21.58984375 -30.71201172 21.58984375 -30.80078125 20.40625 C-31.06980166 14.19572167 -31.03351314 9.52608717 -27.22265625 4.44140625 C-19.59140304 -3.63764665 -10.04024898 -4.67190776 0 0 Z " fill="#2F315E" transform="translate(75.625,19.25)"/>
<path d="M0 0 C4.12947178 0.45824496 7.30081484 1.60368137 11.0625 3.33984375 C11.0625 4.32984375 11.0625 5.31984375 11.0625 6.33984375 C13.35273991 8.09439745 13.35273991 8.09439745 16.25 9.71484375 C20.45577873 12.267578 23.82371807 14.65433328 27.0625 18.33984375 C22.52160073 16.65322402 18.65622682 14.33592301 14.5625 11.77734375 C12.11889899 10.37227317 9.70141571 9.32001244 7.0625 8.33984375 C7.0625 8.99984375 7.0625 9.65984375 7.0625 10.33984375 C2.7725 10.00984375 -1.5175 9.67984375 -5.9375 9.33984375 C-0.83611106 17.84215864 6.24662019 23.00484847 15.0625 27.33984375 C9.96410359 29.00819772 5.82164429 27.48913472 1.0625 25.33984375 C-5.49203843 20.83230628 -11.85618986 14.62624888 -13.5 6.58984375 C-11.72623605 -0.50521205 -6.11464212 -0.18733585 0 0 Z " fill="#090A0E" transform="translate(19.9375,59.66015625)"/>
<path d="M0 0 C4.86979684 2.38895694 7.31913003 5.33330042 10 10 C11.14487739 13.43463216 10.96556888 15.71420564 10.6875 19.3125 C10.56955078 20.97732422 10.56955078 20.97732422 10.44921875 22.67578125 C10.00061158 25.99547433 9.16172078 28.86572476 8 32 C7.34 32 6.68 32 6 32 C5.91110927 27.91102649 6.11139957 24.11398888 6.6875 20.0625 C7.24486843 14.83916161 6.38154363 11.68096506 4 7 C1.56772549 4.2202577 0.32534505 4.03614945 -3.375 3.625 C-8.45952037 4.15098487 -11.57048947 5.57048947 -15.1875 9.1875 C-17.44085132 12.68407963 -18.66523228 16.06243522 -20 20 C-20.33 20 -20.66 20 -21 20 C-21.42105485 13.89470468 -21.10167827 10.85725058 -17 6 C-11.46634654 0.77690872 -7.57108772 -0.90648774 0 0 Z " fill="#040508" transform="translate(70,24)"/>
<path d="M0 0 C4.26655599 2.32721236 6.08427447 5.23048654 7.56640625 9.71875 C8.74549618 15.92225018 7.28612071 22.20849419 5 28 C3.44576388 23.46681132 4.07993314 18.63948527 4.390625 13.93164062 C4.5105379 9.93329482 4.16414487 8.2143933 1.703125 5 C-0.90866926 2.66299402 -0.90866926 2.66299402 -4.5 2.9375 C-9.86484268 4.56611296 -12.10478314 6.60451489 -15.125 11.3125 C-17.47712687 16.34473955 -18.16035727 21.7149372 -19.140625 27.14453125 C-20.39030305 32.75104139 -22.55897689 37.81885608 -25 43 C-25.99 43 -26.98 43 -28 43 C-27.66226563 42.29875 -27.32453125 41.5975 -26.9765625 40.875 C-23.63789102 33.77308609 -20.49782593 27.03478514 -21 19 C-21.33 19 -21.66 19 -22 19 C-22 16.69 -22 14.38 -22 12 C-21.34 13.32 -20.68 14.64 -20 16 C-19.86464844 15.41992188 -19.72929688 14.83984375 -19.58984375 14.2421875 C-17.88135048 8.04250532 -15.45855543 4.47362618 -10 1 C-6.39427296 -0.20190901 -3.7897565 -0.32670315 0 0 Z " fill="#0F1022" transform="translate(70,27)"/>
<path d="M0 0 C1.3171008 3.01707975 0.91942042 4.25138558 -0.109375 7.4609375 C-0.64480783 8.77036234 -1.19211786 10.07498106 -1.75 11.375 C-2.01554687 12.02210937 -2.28109375 12.66921875 -2.5546875 13.3359375 C-3.81965466 16.38168368 -5.14847185 19.27660508 -6.7109375 22.1875 C-8.34375955 25.75002083 -8.05613246 28.06067422 -7.6171875 31.8515625 C-8 34 -8 34 -9.89453125 36.2578125 C-14.25873897 38.70616048 -17.90337296 38.44036138 -22.8125 38.25 C-24.13797852 38.22292969 -24.13797852 38.22292969 -25.49023438 38.1953125 C-27.66062543 38.14838513 -29.83045519 38.07664731 -32 38 C-32 37.67 -32 37.34 -32 37 C-24.08 36.505 -24.08 36.505 -16 36 C-16.66 35.01 -17.32 34.02 -18 33 C-17.01 31.02 -16.02 29.04 -15 27 C-14.34 27 -13.68 27 -13 27 C-8.13785369 18.16850844 -3.64667734 9.41473911 0 0 Z " fill="#191A37" transform="translate(81,57)"/>
<path d="M0 0 C1.10844919 3.32534757 0.84454356 5.62182575 0 9 C-0.66 9 -1.32 9 -2 9 C-1.98646484 10.07314453 -1.98646484 10.07314453 -1.97265625 11.16796875 C-2.24754455 20.40660602 -5.23287749 26.28298706 -10 34 C-10.99 34 -11.98 34 -13 34 C-13.3994332 28.87785655 -12.08836652 25.3508319 -9.8125 20.875 C-9.16842757 19.55833895 -8.52652809 18.2406129 -7.88671875 16.921875 C-7.56751465 16.26767578 -7.24831055 15.61347656 -6.91943359 14.93945312 C-5.09668795 11.09455366 -3.53408656 7.14094345 -1.9453125 3.1953125 C-1 1 -1 1 0 0 Z " fill="#14151F" transform="translate(85,54)"/>
<path d="M0 0 C0.66 1.32 1.32 2.64 2 4 C2.66 3.67 3.32 3.34 4 3 C4.33788768 7.99920181 3.22648562 11.79413985 1.25 16.3125 C0.87101562 17.26092773 0.87101562 17.26092773 0.484375 18.22851562 C-1.46586152 22.7774423 -1.46586152 22.7774423 -4.203125 23.91796875 C-4.79609375 23.94503906 -5.3890625 23.97210938 -6 24 C-5.57355565 20.50315637 -4.87926526 17.50886637 -3.4375 14.3125 C-1.80095344 11.14315486 -1.80095344 11.14315486 -2 8 C-2.99 8.495 -2.99 8.495 -4 9 C-2.94124926 5.59687262 -1.99097846 2.98646769 0 0 Z " fill="#363966" transform="translate(43,43)"/>
<path d="M0 0 C0.33 0 0.66 0 1 0 C1 1.65 1 3.3 1 5 C1.66 5 2.32 5 3 5 C1.644332 18.30767979 -4.87061021 29.90113311 -12 41 C-12.33 40.34 -12.66 39.68 -13 39 C-12.00709616 36.48624345 -10.95346196 34.07056225 -9.8125 31.625 C-5.15541751 21.29661567 -1.68263142 11.24706263 0 0 Z " fill="#2A2C55" transform="translate(80,44)"/>
<path d="M0 0 C-2.35084128 2.68118826 -4.61129038 3.81356753 -7.875 5.1875 C-13.11924807 7.77517277 -16.07249331 10.4084122 -18 16 C-18.64861593 20.00471199 -18.92568049 23.94620835 -19 28 C-19.66 28 -20.32 28 -21 28 C-22.03266468 13.31321343 -22.03266468 13.31321343 -18.375 8.3125 C-12.96249234 2.4404398 -7.90692143 -0.21963671 0 0 Z " fill="#0F0F10" transform="translate(64,14)"/>
<path d="M0 0 C2.06136414 5.7199442 -0.80142878 11.63510457 -3 17 C-5.42524445 22.1286965 -8.1923889 27.0730514 -11 32 C-12.65 30.68 -14.3 29.36 -16 28 C-15.505 26.515 -15.505 26.515 -15 25 C-13.68 25.99 -12.36 26.98 -11 28 C-10.61328125 26.77990234 -10.61328125 26.77990234 -10.21875 25.53515625 C-8.80324872 21.42929516 -7.17253336 17.4438822 -5.5 13.4375 C-4.88521018 11.95711698 -4.27062166 10.47665035 -3.65625 8.99609375 C-3.37007812 8.30757324 -3.08390625 7.61905273 -2.7890625 6.90966797 C-1.84046247 4.61389154 -0.91465236 2.30949721 0 0 Z " fill="#111326" transform="translate(73,57)"/>
<path d="M0 0 C4.44443684 3.85184526 5.7807587 7.54563638 6.30078125 13.3671875 C6.32397617 20.31019953 6.02001155 25.70830928 3 32 C2.18569833 29.16370868 1.89892633 26.71509105 1.97265625 23.76953125 C1.98490234 22.96580078 1.99714844 22.16207031 2.00976562 21.33398438 C2.0445154 19.67243025 2.08347612 18.01095805 2.12695312 16.34960938 C2.20427901 10.63204271 1.48038519 5.52217717 0 0 Z " fill="#191B38" transform="translate(80,23)"/>
<path d="M0 0 C13.63457302 -1.06473889 23.64369527 4.79729992 34 13 C34.495 13.99 34.495 13.99 35 15 C31.48088651 13.68969178 28.42309041 12.12632826 25.25 10.125 C16.07936756 4.60638933 9.88454407 2.33698209 -1 3 C-0.67 2.01 -0.34 1.02 0 0 Z " fill="#363862" transform="translate(12,63)"/>
<path d="M0 0 C1.10844919 3.32534757 0.84454356 5.62182575 0 9 C-0.66 9 -1.32 9 -2 9 C-2.33 12.3 -2.66 15.6 -3 19 C-4.65 19.33 -6.3 19.66 -8 20 C-3.4351585 3.4351585 -3.4351585 3.4351585 0 0 Z " fill="#030407" transform="translate(85,54)"/>
<path d="M0 0 C1.31501363 2.16590481 2.03022952 3.50121292 1.875 6.0625 C0.63358888 8.81133891 -0.31351259 9.5376307 -3 11 C-6.25742141 11.37086463 -9.47701699 11.28177351 -12.75 11.1875 C-13.63816406 11.17396484 -14.52632812 11.16042969 -15.44140625 11.14648438 C-17.62822578 11.11121309 -19.81379966 11.06192752 -22 11 C-22 10.67 -22 10.34 -22 10 C-14.08 9.505 -14.08 9.505 -6 9 C-6.33 8.34 -6.66 7.68 -7 7 C-5.824375 6.38125 -5.824375 6.38125 -4.625 5.75 C-1.94108344 3.9607223 -1.11901051 2.95011861 0 0 Z " fill="#1F2028" transform="translate(71,84)"/>
<path d="M0 0 C2.87681907 0.76744411 5.28350093 1.7462312 8 3 C7.67 3.99 7.34 4.98 7 6 C3.7 5.01 0.4 4.02 -3 3 C-3 2.34 -3 1.68 -3 1 C-8.24774798 1.24168454 -8.24774798 1.24168454 -12.875 3.3125 C-14.09781157 5.14671736 -15.09841437 6.98877051 -16 9 C-16.35505731 5.80448419 -16.34422216 4.44570275 -14.34375 1.85546875 C-10.11576815 -1.49168355 -5.14261445 -0.57067278 0 0 Z " fill="#1E1F20" transform="translate(23,60)"/>
<path d="M0 0 C0.66 1.32 1.32 2.64 2 4 C2.66 3.67 3.32 3.34 4 3 C4.19622241 7.21878192 3.80230168 10.17010894 2 14 C1 12 0 10 -1 8 C-1.99 8.33 -2.98 8.66 -4 9 C-2.94124926 5.59687262 -1.99097846 2.98646769 0 0 Z " fill="#21233A" transform="translate(43,43)"/>
<path d="M0 0 C0.598125 0.19722656 1.19625 0.39445312 1.8125 0.59765625 C1.19761719 0.97277344 0.58273438 1.34789063 -0.05078125 1.734375 C-6.3275988 5.55241588 -6.3275988 5.55241588 -10.1875 11.59765625 C-10.90673208 15.29289577 -10.90673208 15.29289577 -11.1875 18.59765625 C-11.5175 18.59765625 -11.8475 18.59765625 -12.1875 18.59765625 C-12.55983816 13.94342924 -12.65257989 10.54570372 -10.5625 6.28515625 C-4.30795438 -0.7923559 -4.30795438 -0.7923559 0 0 Z " fill="#45497D" transform="translate(58.1875,18.40234375)"/>
<path d="M0 0 C0.82273185 2.36734455 1.10990889 3.64262754 0.36328125 6.0703125 C0.01652344 6.74835937 -0.33023438 7.42640625 -0.6875 8.125 C-1.02136719 8.80820312 -1.35523438 9.49140625 -1.69921875 10.1953125 C-3.22681238 12.31467663 -4.60786878 13.02300325 -7 14 C-5.41944248 8.89358339 -3.8407594 3.8407594 0 0 Z " fill="#121215" transform="translate(41,50)"/>
<path d="M0 0 C6.17124332 3.19543026 11.86719306 6.2833666 17 11 C13.81579155 11 13.03619037 10.63765561 10.42578125 9.03125 C9.75869141 8.62519531 9.09160156 8.21914062 8.40429688 7.80078125 C7.71400391 7.37152344 7.02371094 6.94226563 6.3125 6.5 C5.61060547 6.07074219 4.90871094 5.64148438 4.18554688 5.19921875 C2.45340009 4.13872072 0.72621518 3.07012602 -1 2 C-0.67 1.34 -0.34 0.68 0 0 Z " fill="#242543" transform="translate(30,66)"/>
<path d="M0 0 C0.66 0 1.32 0 2 0 C0.87204037 4.10899581 -0.33510818 8.07561214 -2 12 C-2.66 11.34 -3.32 10.68 -4 10 C-3.34 7.69 -2.68 5.38 -2 3 C-1.34 3 -0.68 3 0 3 C0 2.01 0 1.02 0 0 Z " fill="#20212D" transform="translate(85,60)"/>
<path d="M0 0 C-0.75 2.9375 -0.75 2.9375 -2 6 C-4.125 6.875 -4.125 6.875 -6 7 C-5.67 5.02 -5.34 3.04 -5 1 C-2 0 -2 0 0 0 Z " fill="#31335D" transform="translate(43,60)"/>
<path d="M0 0 C-1.75 5.75 -1.75 5.75 -4 8 C-4.2165625 6.824375 -4.2165625 6.824375 -4.4375 5.625 C-4.87798925 3.03578982 -4.87798925 3.03578982 -6 1 C-4 0 -4 0 0 0 Z " fill="#151622" transform="translate(82,73)"/>
<path d="M0 0 C0.33 0 0.66 0 1 0 C1 4.29 1 8.58 1 13 C1.66 13 2.32 13 3 13 C2.67 13.99 2.34 14.98 2 16 C1.67 15.67 1.34 15.34 1 15 C0.34 15.66 -0.32 16.32 -1 17 C-0.67 11.39 -0.34 5.78 0 0 Z " fill="#49494D" transform="translate(42,29)"/>
<path d="M0 0 C0.5534764 2.07553648 1 3.84365964 1 6 C-0.65 6.33 -2.3 6.66 -4 7 C-3.39816251 4.97954558 -2.72693904 2.97888961 -2 1 C-1.34 0.67 -0.68 0.34 0 0 Z " fill="#05050B" transform="translate(77,75)"/>
<path d="M0 0 C5.75 0.875 5.75 0.875 8 2 C8 2.66 8 3.32 8 4 C4.31245243 3.50168276 2.39509338 2.89932357 0 0 Z " fill="#2A2C38" transform="translate(25,86)"/>
<path d="M0 0 C0.33 1.32 0.66 2.64 1 4 C-1.475 5.485 -1.475 5.485 -4 7 C-3.39816251 4.97954558 -2.72693904 2.97888961 -2 1 C-1.34 0.67 -0.68 0.34 0 0 Z " fill="#1D1D1E" transform="translate(38,57)"/>
</svg>
