<?xml version="1.0" encoding="UTF-8"?>
<svg version="1.1" xmlns="http://www.w3.org/2000/svg" width="98" height="100">
<path d="M0 0 C32.34 0 64.68 0 98 0 C98 33 98 66 98 100 C65.66 100 33.32 100 0 100 C0 67 0 34 0 0 Z " fill="#FCFCFB" transform="translate(0,0)"/>
<path d="M0 0 C5.2123889 3.21405321 9.01538842 6.42116527 11 12.375 C12.52887239 34.5529155 9.31226486 55.61053056 -5 73.375 C-6.04220703 74.71884766 -6.04220703 74.71884766 -7.10546875 76.08984375 C-11.14457647 79.278613 -14.19115538 79.02177864 -19.1875 78.8125 C-20.04102051 78.79147217 -20.89454102 78.77044434 -21.77392578 78.7487793 C-39.6330535 78.15733844 -53.87757516 72.09593903 -66.30078125 59.2578125 C-69.02601539 56.23812778 -70.74872225 53.84676966 -71.4375 49.8125 C-70.84320095 46.50140529 -69.59206938 45.47396527 -67 43.375 C-58.8620953 41.73049028 -51.40109696 44.11152418 -44 47.375 C-43.72285156 46.51777344 -43.44570313 45.66054688 -43.16015625 44.77734375 C-42.41185228 42.58282267 -41.61044704 40.40536506 -40.74609375 38.25390625 C-38.16718254 31.71809843 -36.74711219 26.62036617 -36.5625 19.5625 C-36.2553741 11.12092537 -33.41408023 6.70372823 -27.5 0.9375 C-19.11354254 -4.30403591 -8.70252505 -4.49846356 0 0 Z " fill="#0B0C0E" transform="translate(78,16.625)"/>
<path d="M0 0 C3.89654902 0.84606343 6.89599971 2.82472751 9.1015625 6.140625 C14.30580717 19.9791847 6.85760281 37.35291854 1.48828125 50.08203125 C-0.37241722 54.15558084 -2.48884028 57.75046099 -5.0390625 61.42578125 C-9.20592829 59.84355155 -11.68497909 56.75842315 -14.5390625 53.48828125 C-17.48764359 50.13396898 -20.3139851 46.94723694 -24.0390625 44.42578125 C-23.43591607 39.93267921 -22.24805376 36.07966688 -20.6015625 31.86328125 C-18.80723427 27.01859503 -17.62221348 22.54990221 -16.9765625 17.42578125 C-16.0889765 10.71595679 -13.94663622 7.42006287 -9.2890625 2.55078125 C-5.79159836 0.26397777 -4.06408208 -0.27249592 0 0 Z " fill="#8CA2D2" transform="translate(67.0390625,26.57421875)"/>
<path d="M0 0 C0.33 0 0.66 0 1 0 C1.19901317 12.08294225 -5.52385317 24.72056148 -13 34 C-13.69480469 34.89589844 -14.38960938 35.79179688 -15.10546875 36.71484375 C-19.14457647 39.903613 -22.19115538 39.64677864 -27.1875 39.4375 C-28.04102051 39.41647217 -28.89454102 39.39544434 -29.77392578 39.3737793 C-47.6330535 38.78233844 -61.87757516 32.72093903 -74.30078125 19.8828125 C-77.02601539 16.86312778 -78.74872225 14.47176966 -79.4375 10.4375 C-78.83919509 7.1040869 -77.64121979 6.08241627 -75 4 C-71.984375 3.609375 -71.984375 3.609375 -68.75 3.75 C-67.67234375 3.78609375 -66.5946875 3.8221875 -65.484375 3.859375 C-64.25460938 3.92898437 -64.25460938 3.92898437 -63 4 C-63 4.33 -63 4.66 -63 5 C-68.445 5.495 -68.445 5.495 -74 6 C-72.515 6 -71.03 6 -69.5 6 C-57.82558457 7.05582568 -46.58114166 14.37231852 -38 22 C-41.76237612 22 -42.9827351 20.85930661 -46.0625 18.75 C-54.35834123 13.36152869 -61.02672915 10.35656317 -71 11 C-69.24429688 11.1546875 -69.24429688 11.1546875 -67.453125 11.3125 C-53.73925551 13.04934891 -40.10498737 23.10613286 -31 33 C-31 33.66 -31 34.32 -31 35 C-34.63 35 -38.26 35 -42 35 C-39.45887768 35.33801152 -36.91723254 35.67053379 -34.375 36 C-33.66214844 36.09539062 -32.94929688 36.19078125 -32.21484375 36.2890625 C-24.56502764 37.58308217 -24.56502764 37.58308217 -17.3828125 35.49609375 C-14.34870972 32.31774674 -12.7023195 29.02409979 -10.875 25.0625 C-10.20753233 23.65669454 -9.53829864 22.25172603 -8.8671875 20.84765625 C-8.55080322 20.17968018 -8.23441895 19.5117041 -7.90844727 18.82348633 C-7 17 -7 17 -5.39453125 14.390625 C-3.75256169 11.57582005 -2.8010069 8.78936649 -1.8125 5.6875 C-1.29623047 4.08455078 -1.29623047 4.08455078 -0.76953125 2.44921875 C-0.51558594 1.64097656 -0.26164062 0.83273438 0 0 Z " fill="#18191B" transform="translate(86,56)"/>
<path d="M0 0 C6.00293125 3.06578275 9.46146926 5.94005817 12.125 12.25 C14.26601186 31.47306348 6.41996603 55.66518257 -5.29296875 71.12109375 C-6.875 72.25 -6.875 72.25 -9.0625 71.9375 C-9.660625 71.710625 -10.25875 71.48375 -10.875 71.25 C-10.34390625 70.28320312 -9.8128125 69.31640625 -9.265625 68.3203125 C-1.33158338 53.75642957 8.39927939 35.35514358 6.125 18.25 C4.72408559 13.84712615 2.82176404 10.8981526 -0.5625 7.75 C-4.84400564 5.81120499 -8.25060284 5.42806945 -12.875 6.25 C-18.51767812 9.12457187 -22.4342584 13.40855985 -24.875 19.25 C-25.15292128 21.32739137 -25.37559155 23.41245111 -25.5625 25.5 C-26.66600781 34.16390431 -30.08667068 41.45049845 -33.875 49.25 C-34.865 48.92 -35.855 48.59 -36.875 48.25 C-36.27338018 43.72417816 -35.07883938 39.85488033 -33.375 35.625 C-30.93309677 29.53443904 -29.82562589 25.06333264 -29.625 18.5 C-29.10785666 11.06702924 -27.62012199 6.70638243 -22.15234375 1.66015625 C-15.39435299 -3.34936051 -7.57889972 -3.165231 0 0 Z " fill="#84A5D9" transform="translate(73.875,18.75)"/>
<path d="M0 0 C5.2123889 3.21405321 9.01538842 6.42116527 11 12.375 C11.09385984 14.18560942 11.13070571 15.99946064 11.1328125 17.8125 C11.13410156 18.87210938 11.13539062 19.93171875 11.13671875 21.0234375 C11.13285156 22.12945312 11.12898438 23.23546875 11.125 24.375 C11.13080078 26.03402344 11.13080078 26.03402344 11.13671875 27.7265625 C11.13542969 28.78617188 11.13414063 29.84578125 11.1328125 30.9375 C11.13168457 31.90816406 11.13055664 32.87882812 11.12939453 33.87890625 C11 36.375 11 36.375 10 39.375 C9.34 39.375 8.68 39.375 8 39.375 C7.86658203 40.86773437 7.86658203 40.86773437 7.73046875 42.390625 C7.1009746 46.76302762 5.36150073 50.25130722 3.3125 54.125 C2.95454346 54.81875732 2.59658691 55.51251465 2.2277832 56.22729492 C1.1626029 58.28236853 0.08267412 60.32910172 -1 62.375 C-1.58007812 63.49003906 -2.16015625 64.60507813 -2.7578125 65.75390625 C-6.89588655 73.56218165 -6.89588655 73.56218165 -10 76.375 C-11.32 75.715 -12.64 75.055 -14 74.375 C-13.25492188 74.02308594 -12.50984375 73.67117187 -11.7421875 73.30859375 C-8.31274678 70.89039837 -6.87289593 68.13412162 -5.125 64.4375 C-4.78911865 63.74599854 -4.4532373 63.05449707 -4.10717773 62.34204102 C-1.41387185 56.62500491 0.83106833 50.7678363 2.9375 44.8125 C3.37908447 43.56448608 3.37908447 43.56448608 3.82958984 42.29125977 C6.99300946 32.98592485 9.31222049 21.40890437 6.1640625 11.83203125 C2.7143803 5.66196209 -2.5494012 3.5251996 -9 1.375 C-16.25991351 0.43478169 -21.10586144 1.29414637 -27.125 5.4765625 C-31.34268341 9.74696695 -32.30613693 13.96602493 -32.375 19.8125 C-32.82229614 28.58136817 -34.80629093 39.73661439 -41 46.375 C-42.485 46.87 -42.485 46.87 -44 47.375 C-43.00270893 44.29035551 -41.95495464 41.26287776 -40.74609375 38.25390625 C-38.16718254 31.71809843 -36.74711219 26.62036617 -36.5625 19.5625 C-36.2553741 11.12092537 -33.41408023 6.70372823 -27.5 0.9375 C-19.11354254 -4.30403591 -8.70252505 -4.49846356 0 0 Z " fill="#1D1E1F" transform="translate(78,16.625)"/>
<path d="M0 0 C11.81761056 -1.17653202 21.83391947 3.85842769 31 11 C34.45315851 13.87520371 37.8894584 16.7530881 41 20 C41 20.66 41 21.32 41 22 C28.31177318 22.86510637 15.83165203 17.6961974 6.1796875 9.6484375 C3.95429777 7.50676149 1.85327653 5.47103537 0 3 C0 2.01 0 1.02 0 0 Z " fill="#899ECD" transform="translate(14,69)"/>
<path d="M0 0 C4.86979684 2.38895694 7.31913003 5.33330042 10 10 C12.6222236 17.86667081 10.17498487 25.30752103 8 33 C7.73316406 34.02222656 7.46632812 35.04445312 7.19140625 36.09765625 C4.31825781 46.40268198 -0.16613738 57.63330838 -7 66 C-7.66 65.34 -8.32 64.68 -9 64 C-8.319375 63.030625 -7.63875 62.06125 -6.9375 61.0625 C2.14939593 46.46133389 8.07458709 28.24754753 6 11 C4.66805051 8.3177546 3.6715439 6.52231192 1.3125 4.6875 C-2.22218879 3.63664657 -5.40345498 3.2230927 -9 4 C-13.12002384 6.47362055 -16.25608708 9.48272776 -18 14 C-18.48903746 16.66850497 -18.92003434 19.31790446 -19.3125 22 C-20.51931774 29.60123593 -22.61329876 36.05257729 -26 43 C-26.99 42.67 -27.98 42.34 -29 42 C-28.81824219 41.46632812 -28.63648438 40.93265625 -28.44921875 40.3828125 C-27.6203157 37.92585885 -26.80790801 35.46393665 -26 33 C-25.72542969 32.17242187 -25.45085938 31.34484375 -25.16796875 30.4921875 C-23.86651682 26.40191001 -22.89050248 22.66729008 -22.625 18.375 C-22.04483455 11.93630111 -18.64503959 7.19621646 -13.8125 3.0625 C-9.16425051 -0.34621629 -5.6769673 -0.67970435 0 0 Z " fill="#14181F" transform="translate(70,24)"/>
<path d="M0 0 C0.33 0 0.66 0 1 0 C1.19901317 12.08294225 -5.52385317 24.72056148 -13 34 C-13.69480469 34.89589844 -14.38960937 35.79179688 -15.10546875 36.71484375 C-19.14457647 39.903613 -22.19115538 39.64677864 -27.1875 39.4375 C-28.04102051 39.41647217 -28.89454102 39.39544434 -29.77392578 39.3737793 C-43.21518557 38.928645 -56.38352025 35.64132073 -67 27 C-63.70199778 27 -61.70628194 27.9721737 -58.75708008 29.33764648 C-48.14369566 34.19041689 -37.5768431 36.01811702 -26 37 C-24.91074219 37.10441406 -23.82148437 37.20882812 -22.69921875 37.31640625 C-18.95471846 36.87747062 -17.59866905 35.72221233 -15 33 C-13.40889762 30.44811109 -12.13353797 27.79099043 -10.875 25.0625 C-10.20753233 23.65669454 -9.53829864 22.25172603 -8.8671875 20.84765625 C-8.39261108 19.84569214 -8.39261108 19.84569214 -7.90844727 18.82348633 C-7 17 -7 17 -5.39453125 14.390625 C-3.75256169 11.57582005 -2.8010069 8.78936649 -1.8125 5.6875 C-1.29623047 4.08455078 -1.29623047 4.08455078 -0.76953125 2.44921875 C-0.51558594 1.64097656 -0.26164062 0.83273438 0 0 Z " fill="#8D8474" transform="translate(86,56)"/>
<path d="M0 0 C2.24475097 3.36712646 2.2471312 4.50124055 2.23046875 8.4375 C2.22853516 9.49710938 2.22660156 10.55671875 2.22460938 11.6484375 C2.20624023 13.30746094 2.20624023 13.30746094 2.1875 15 C2.18685547 16.10601562 2.18621094 17.21203125 2.18554688 18.3515625 C2.14050904 26.57847287 2.14050904 26.57847287 1 30 C0.34 30 -0.32 30 -1 30 C-1.08894531 30.99515625 -1.17789063 31.9903125 -1.26953125 33.015625 C-1.8990254 37.38802762 -3.63849927 40.87630722 -5.6875 44.75 C-6.04545654 45.44375732 -6.40341309 46.13751465 -6.7722168 46.85229492 C-7.8373971 48.90736853 -8.91732588 50.95410172 -10 53 C-10.58007812 54.11503906 -11.16015625 55.23007813 -11.7578125 56.37890625 C-15.89588655 64.18718165 -15.89588655 64.18718165 -19 67 C-20.32 66.34 -21.64 65.68 -23 65 C-22.25492187 64.64808594 -21.50984375 64.29617187 -20.7421875 63.93359375 C-17.31274678 61.51539837 -15.87289593 58.75912162 -14.125 55.0625 C-13.78911865 54.37099854 -13.4532373 53.67949707 -13.10717773 52.96704102 C-10.41387185 47.25000491 -8.16893167 41.3928363 -6.0625 35.4375 C-5.76811035 34.60549072 -5.4737207 33.77348145 -5.17041016 32.91625977 C-3.58944325 28.26577757 -2.51812605 23.88612541 -2 19 C-1.67 20.32 -1.34 21.64 -1 23 C-0.34 23 0.32 23 1 23 C0.505 11.615 0.505 11.615 0 0 Z " fill="#111317" transform="translate(87,26)"/>
<path d="M0 0 C6.83538643 1.02376846 12.19727006 4.30213416 17.09375 9.08203125 C20.1297346 14.46400395 19.58945564 20.32789526 19.53125 26.33203125 C19.52673828 27.21568359 19.52222656 28.09933594 19.51757812 29.00976562 C19.50584866 31.17971684 19.48791495 33.34963297 19.46875 35.51953125 C18.80875 35.51953125 18.14875 35.51953125 17.46875 35.51953125 C17.45457031 34.31296875 17.44039062 33.10640625 17.42578125 31.86328125 C17.5013147 20.75749219 17.5013147 20.75749219 13.06640625 10.9296875 C7.29095149 5.83203672 0.8038769 4.38801632 -6.71875 4.45703125 C-7.99105469 4.46605469 -9.26335938 4.47507812 -10.57421875 4.484375 C-11.55003906 4.49597656 -12.52585938 4.50757813 -13.53125 4.51953125 C-9.4611765 -0.40378657 -6.10092184 -0.185501 0 0 Z " fill="#0D0E0F" transform="translate(68.53125,13.48046875)"/>
<path d="M0 0 C1.32 0 2.64 0 4 0 C4.41041918 7.11393245 2.92944644 13.17594051 1 20 C0.73316406 21.02222656 0.46632813 22.04445313 0.19140625 23.09765625 C-2.68174219 33.40268198 -7.16613738 44.63330838 -14 53 C-14.66 52.34 -15.32 51.68 -16 51 C-15.319375 50.030625 -14.63875 49.06125 -13.9375 48.0625 C-4.86215628 33.47989642 -0.80734881 17.01000422 0 0 Z " fill="#181B23" transform="translate(77,37)"/>
<path d="M0 0 C0.33 0 0.66 0 1 0 C1 4.29 1 8.58 1 13 C1.66 13 2.32 13 3 13 C2.83493323 22.24373904 -1.13804708 29.78200619 -5 38 C-5.99 37.67 -6.98 37.34 -8 37 C-7.39838018 32.47417816 -6.20383938 28.60488033 -4.5 24.375 C-2.03421377 18.22487038 -0.86734686 13.38192296 -0.4375 6.75 C-0.35371094 5.48671875 -0.26992188 4.2234375 -0.18359375 2.921875 C-0.12300781 1.95765625 -0.06242187 0.9934375 0 0 Z " fill="#7995C3" transform="translate(45,30)"/>
<path d="M0 0 C11.31528103 -0.94294009 20.02335969 3.78457576 28.84375 10.546875 C30.95515384 11.96977759 32.51285004 12.57040137 35 13 C35 13.66 35 14.32 35 15 C33.22265625 15.6640625 33.22265625 15.6640625 31 16 C29.24609375 14.9609375 29.24609375 14.9609375 27.4375 13.375 C23.40934117 10.12526586 19.25635317 8.10986565 14.515625 6.078125 C12 5 12 5 9.96875 3.8984375 C7.68175228 2.85476791 5.7477687 2.59539136 3.25 2.375 C2.45078125 2.30023438 1.6515625 2.22546875 0.828125 2.1484375 C0.22484375 2.09945312 -0.3784375 2.05046875 -1 2 C-0.67 1.34 -0.34 0.68 0 0 Z " fill="#16191E" transform="translate(15,66)"/>
<path d="M0 0 C0.33 0 0.66 0 1 0 C1.20465788 12.4256569 -6.09281906 26.83460669 -14.671875 35.734375 C-15.11015625 36.15203125 -15.5484375 36.5696875 -16 37 C-15.3835511 34.21366637 -14.53969102 31.83196778 -13.2578125 29.28515625 C-12.91363281 28.59873047 -12.56945312 27.91230469 -12.21484375 27.20507812 C-11.85519531 26.49802734 -11.49554688 25.79097656 -11.125 25.0625 C-10.77308594 24.35931641 -10.42117187 23.65613281 -10.05859375 22.93164062 C-8.58616679 20.01141839 -7.10589666 17.17045535 -5.37890625 14.390625 C-3.75450262 11.57437847 -2.79877761 8.78237113 -1.8125 5.6875 C-1.29623047 4.08455078 -1.29623047 4.08455078 -0.76953125 2.44921875 C-0.51558594 1.64097656 -0.26164062 0.83273438 0 0 Z " fill="#857B6B" transform="translate(86,56)"/>
<path d="M0 0 C11.46961762 -1.74960269 20.86179838 3.75718622 30.0234375 10.08984375 C32.07468086 11.67195417 34.06434707 13.27941962 36 15 C32.23762388 15 31.0172649 13.85930661 27.9375 11.75 C18.33170918 5.53078549 10.46195574 3.35930896 -1 3 C-0.67 2.01 -0.34 1.02 0 0 Z " fill="#778EAC" transform="translate(12,63)"/>
<path d="M0 0 C0.33 1.32 0.66 2.64 1 4 C1.23976563 4.80953125 1.47953125 5.6190625 1.7265625 6.453125 C2.08261554 9.76950473 1.23309619 11.02235141 -0.625 13.75 C-1.13289063 14.52859375 -1.64078125 15.3071875 -2.1640625 16.109375 C-4 18 -4 18 -9 19 C-6.03 12.73 -3.06 6.46 0 0 Z " fill="#7593C4" transform="translate(72,72)"/>
<path d="M0 0 C2.24475097 3.36712646 2.2471312 4.50124055 2.23046875 8.4375 C2.22853516 9.49710938 2.22660156 10.55671875 2.22460938 11.6484375 C2.21236328 12.75445312 2.20011719 13.86046875 2.1875 15 C2.18685547 16.10601562 2.18621094 17.21203125 2.18554688 18.3515625 C2.14050904 26.57847287 2.14050904 26.57847287 1 30 C0.34 30 -0.32 30 -1 30 C-1.33 31.32 -1.66 32.64 -2 34 C-2.66 34 -3.32 34 -4 34 C-3.38487182 28.99109914 -2.7282448 23.99367864 -2 19 C-1.67 20.32 -1.34 21.64 -1 23 C-0.34 23 0.32 23 1 23 C0.67 15.41 0.34 7.82 0 0 Z " fill="#353431" transform="translate(87,26)"/>
<path d="M0 0 C9.6760591 -0.86051909 9.6760591 -0.86051909 13.5 2.25 C16.60084066 5.66092472 18 7.385214 18 12 C17.01 12 16.02 12 15 12 C14.4225 10.88625 13.845 9.7725 13.25 8.625 C11.50260995 5.61560603 10.47292043 3.96470012 7 3 C4.33211969 2.56903472 1.69258599 2.2692586 -1 2 C-0.67 1.34 -0.34 0.68 0 0 Z " fill="#0F1116" transform="translate(62,25)"/>
<path d="M0 0 C1.32 0 2.64 0 4 0 C4.23268915 6.28260706 3.40454548 11.88019467 2 18 C1.01 17.67 0.02 17.34 -1 17 C-0.67 11.39 -0.34 5.78 0 0 Z " fill="#1E232C" transform="translate(77,37)"/>
<path d="M0 0 C0.33 0.66 0.66 1.32 1 2 C1.66 2 2.32 2 3 2 C2.21681311 5.91593446 0.60820142 9.36406635 -1 13 C-1.99 13 -2.98 13 -4 13 C-3.52140759 11.39566191 -3.04210442 9.79153584 -2.5625 8.1875 C-2.29566406 7.29417969 -2.02882813 6.40085937 -1.75390625 5.48046875 C-1.19612127 3.64526945 -0.60655425 1.81966274 0 0 Z " fill="#1D1F23" transform="translate(82,58)"/>
<path d="M0 0 C0.33 0 0.66 0 1 0 C0.70245971 7.12608999 -0.71125344 12.6672508 -4 19 C-4.33 19 -4.66 19 -5 19 C-5.35445029 14.03769593 -4.30579027 11.34552781 -2 7 C-1.22797489 4.68392466 -0.61490853 2.3650328 0 0 Z " fill="#8D8473" transform="translate(86,56)"/>
<path d="M0 0 C0.33 0 0.66 0 1 0 C0.5587029 5.22588666 0.07351958 10.1211304 -2 15 C-2.99 15.495 -2.99 15.495 -4 16 C-3.47606294 10.13190493 -2.23891142 5.45126259 0 0 Z " fill="#0F1115" transform="translate(77,51)"/>
<path d="M0 0 C1 3 1 3 -0.1875 6.625 C-2 10 -2 10 -4.1875 10.9375 C-4.785625 10.958125 -5.38375 10.97875 -6 11 C-4.74194623 6.49197399 -3.09592835 3.5087188 0 0 Z " fill="#191A1B" transform="translate(40,53)"/>
<path d="M0 0 C0.33 0.66 0.66 1.32 1 2 C1.66 2 2.32 2 3 2 C2.34 4.64 1.68 7.28 1 10 C-0.32 10.33 -1.64 10.66 -3 11 C-2.01 7.37 -1.02 3.74 0 0 Z " fill="#262728" transform="translate(41,44)"/>
<path d="M0 0 C0.66 0.99 1.32 1.98 2 3 C-2 9.57142857 -2 9.57142857 -6 11 C-6.66 10.34 -7.32 9.68 -8 9 C-7.236875 8.62875 -6.47375 8.2575 -5.6875 7.875 C-2.47956885 5.6369085 -1.5022184 3.55788567 0 0 Z " fill="#1D2025" transform="translate(72,82)"/>
<path d="M0 0 C1.43739513 -0.02712066 2.87493863 -0.04645067 4.3125 -0.0625 C5.51326172 -0.07990234 5.51326172 -0.07990234 6.73828125 -0.09765625 C9 0 9 0 12 1 C12 1.66 12 2.32 12 3 C7.71 2.67 3.42 2.34 -1 2 C-0.67 1.34 -0.34 0.68 0 0 Z " fill="#030405" transform="translate(15,66)"/>
<path d="M0 0 C0.99 0.33 1.98 0.66 3 1 C2.01 3.97 1.02 6.94 0 10 C-0.99 10 -1.98 10 -3 10 C-2.01 6.7 -1.02 3.4 0 0 Z " fill="#21262F" transform="translate(72,65)"/>
<path d="M0 0 C2.4375 0.6875 2.4375 0.6875 4.4375 1.6875 C4.4375 2.6775 4.4375 3.6675 4.4375 4.6875 C1.1375 3.6975 -2.1625 2.7075 -5.5625 1.6875 C-2.5625 -0.3125 -2.5625 -0.3125 0 0 Z " fill="#181B22" transform="translate(29.5625,68.3125)"/>
<path d="M0 0 C0.9659657 2.60810739 1.02770914 3.89420147 0.3125 6.625 C-1.16625774 9.30084735 -2.17750049 9.96508351 -5 11 C-3.55049545 7.2089881 -1.84827434 3.6125362 0 0 Z " fill="#617CA6" transform="translate(70,77)"/>
<path d="M0 0 C3.37503669 1.1858237 5.64722731 2.27573689 8 5 C7.01 5.495 7.01 5.495 6 6 C3.96855359 5.06553465 1.96466413 4.06775224 0 3 C0 2.01 0 1.02 0 0 Z " fill="#101317" transform="translate(34,71)"/>
</svg>
