<svg version="1.1" id="Layer_1" xmlns="http://www.w3.org/2000/svg" xmlns:xlink="http://www.w3.org/1999/xlink" x="0px" y="0px"
	 width="100%" viewBox="0 0 100 84" enable-background="new 0 0 100 84" xml:space="preserve">
<path fill="#FBFBFB" opacity="1.000000" stroke="none" 
	d="
M64.000000,85.000000 
	C42.666676,85.000000 21.833347,85.000000 1.000017,85.000000 
	C1.000011,57.000019 1.000011,29.000034 1.000006,1.000039 
	C34.333302,1.000026 67.666603,1.000026 100.999931,1.000013 
	C100.999954,28.999962 100.999954,56.999924 100.999977,84.999939 
	C88.833336,85.000000 76.666664,85.000000 64.000000,85.000000 
M64.153961,75.762665 
	C65.885658,75.168411 67.617973,74.575989 69.348946,73.979630 
	C81.962494,69.633980 90.651863,61.187939 95.136650,48.665112 
	C96.217758,45.646328 97.327049,41.847542 96.420502,39.058460 
	C93.923355,31.375772 90.364830,24.038069 87.086411,16.231140 
	C62.435780,24.919819 37.364376,23.243511 12.196673,18.825363 
	C10.248552,24.577650 8.085591,29.843542 6.744881,35.311058 
	C5.827714,39.051334 5.296233,43.200058 5.923705,46.942982 
	C7.453330,56.067345 12.511435,63.246136 20.332296,68.231064 
	C33.582275,76.676453 47.919197,79.468010 64.153961,75.762665 
z"/>
<path fill="#121312" opacity="1.000000" stroke="none" 
	d="
M63.753067,75.862213 
	C47.919197,79.468010 33.582275,76.676453 20.332296,68.231064 
	C12.511435,63.246136 7.453330,56.067345 5.923705,46.942982 
	C5.296233,43.200058 5.827714,39.051334 6.744881,35.311058 
	C8.085591,29.843542 10.248552,24.577650 12.196673,18.825363 
	C37.364376,23.243511 62.435780,24.919819 87.086411,16.231140 
	C90.364830,24.038069 93.923355,31.375772 96.420502,39.058460 
	C97.327049,41.847542 96.217758,45.646328 95.136650,48.665112 
	C90.651863,61.187939 81.962494,69.633980 69.348946,73.979630 
	C67.617973,74.575989 65.885658,75.168411 63.753067,75.862213 
M37.962708,52.795879 
	C31.690777,44.839340 23.362673,41.738911 13.413479,42.136185 
	C9.353302,42.298313 8.362959,43.918320 9.238606,47.806034 
	C12.168705,60.815136 21.774738,66.813614 33.165955,70.840935 
	C40.735046,73.516945 41.529781,72.796432 43.091679,64.382057 
	C43.300911,67.453270 43.510139,70.524490 43.754440,74.110443 
	C47.762215,74.110443 52.484467,74.110443 55.736748,74.110443 
	C56.863506,67.210976 56.239948,59.816547 59.364975,54.721134 
	C63.305107,48.296665 62.674297,43.702007 59.064610,38.270546 
	C58.700630,37.722866 58.486675,37.076492 58.193085,36.480858 
	C56.391022,32.824902 45.473740,30.411678 43.966969,33.802845 
	C41.549091,39.244568 34.259914,43.919136 39.522442,51.441238 
	C39.794891,51.830673 39.123581,52.880375 37.962708,52.795879 
M63.425705,52.037895 
	C58.926044,57.968384 57.420502,64.440277 59.693287,71.618721 
	C75.247704,72.517105 91.481094,58.284481 91.810677,43.637192 
	C82.243042,40.160389 71.828941,43.087318 63.425705,52.037895 
M82.415428,27.858870 
	C75.640762,29.357475 68.866089,30.856083 61.630287,32.456696 
	C63.595840,36.460155 65.527756,40.395115 67.700523,44.820637 
	C75.716179,39.401417 84.318436,39.027889 93.855171,40.323704 
	C91.433342,35.110905 89.448524,30.838720 87.426254,26.485937 
	C85.744316,26.940264 84.476967,27.282600 82.415428,27.858870 
M15.510255,39.663239 
	C21.416431,40.895618 27.322609,42.127998 33.581791,43.434036 
	C35.103676,40.119659 36.790382,36.446342 38.564007,32.583725 
	C29.369965,31.157736 20.873362,29.839918 11.939337,28.454258 
	C10.817204,32.290977 9.767118,35.881367 8.659103,39.669815 
	C10.958298,39.669815 12.770985,39.669815 15.510255,39.663239 
z"/>
<path fill="#F8F8F8" opacity="1.000000" stroke="none" 
	d="
M38.891659,53.622677 
	C39.123581,52.880375 39.794891,51.830673 39.522442,51.441238 
	C34.259914,43.919136 41.549091,39.244568 43.966969,33.802845 
	C45.473740,30.411678 56.391022,32.824902 58.193085,36.480858 
	C58.486675,37.076492 58.700630,37.722866 59.064610,38.270546 
	C62.674297,43.702007 63.305107,48.296665 59.364975,54.721134 
	C56.239948,59.816547 56.863506,67.210976 55.736748,74.110443 
	C52.484467,74.110443 47.762215,74.110443 43.754440,74.110443 
	C43.510139,70.524490 43.300911,67.453270 42.554752,64.541412 
	C42.017826,64.700768 41.942860,64.533287 42.391525,64.844315 
	C42.804825,62.386734 42.847431,59.612129 42.635303,56.857140 
	C42.608814,56.513111 41.234653,56.272846 40.329140,55.821312 
	C39.746120,54.979641 39.318890,54.301159 38.891659,53.622677 
z"/>
<path fill="#F8F8F7" opacity="1.000000" stroke="none" 
	d="
M41.942860,64.533287 
	C41.942860,64.533287 42.017826,64.700768 42.007721,64.648544 
	C41.529781,72.796432 40.735046,73.516945 33.165955,70.840935 
	C21.774738,66.813614 12.168705,60.815136 9.238606,47.806034 
	C8.362959,43.918320 9.353302,42.298313 13.413479,42.136185 
	C23.362673,41.738911 31.690777,44.839340 38.427185,53.209278 
	C39.318890,54.301159 39.746120,54.979641 40.192173,56.238853 
	C40.788284,59.390812 41.365570,61.962051 41.942860,64.533287 
z"/>
<path fill="#F8F8F8" opacity="1.000000" stroke="none" 
	d="
M63.662567,51.759830 
	C71.828941,43.087318 82.243042,40.160389 91.810677,43.637192 
	C91.481094,58.284481 75.247704,72.517105 59.693287,71.618721 
	C57.420502,64.440277 58.926044,57.968384 63.662567,51.759830 
z"/>
<path fill="#F3F4F3" opacity="1.000000" stroke="none" 
	d="
M82.812523,27.741905 
	C84.476967,27.282600 85.744316,26.940264 87.426254,26.485937 
	C89.448524,30.838720 91.433342,35.110905 93.855171,40.323704 
	C84.318436,39.027889 75.716179,39.401417 67.700523,44.820637 
	C65.527756,40.395115 63.595840,36.460155 61.630287,32.456696 
	C68.866089,30.856083 75.640762,29.357475 82.812523,27.741905 
z"/>
<path fill="#F3F3F2" opacity="1.000000" stroke="none" 
	d="
M15.046963,39.666527 
	C12.770985,39.669815 10.958298,39.669815 8.659103,39.669815 
	C9.767118,35.881367 10.817204,32.290977 11.939337,28.454258 
	C20.873362,29.839918 29.369965,31.157736 38.564007,32.583725 
	C36.790382,36.446342 35.103676,40.119659 33.581791,43.434036 
	C27.322609,42.127998 21.416431,40.895618 15.046963,39.666527 
z"/>
<path fill="#121312" opacity="1.000000" stroke="none" 
	d="
M42.391525,64.844315 
	C41.365570,61.962051 40.788284,59.390812 40.347969,56.402039 
	C41.234653,56.272846 42.608814,56.513111 42.635303,56.857140 
	C42.847431,59.612129 42.804825,62.386734 42.391525,64.844315 
z"/>
</svg>