<?xml version="1.0" encoding="UTF-8"?>
<svg version="1.1" xmlns="http://www.w3.org/2000/svg" width="100" height="84">
<path d="M0 0 C33 0 66 0 100 0 C100 27.72 100 55.44 100 84 C67 84 34 84 0 84 C0 56.28 0 28.56 0 0 Z " fill="#171716" transform="translate(0,0)"/>
<path d="M0 0 C33 0 66 0 100 0 C100 27.72 100 55.44 100 84 C67 84 34 84 0 84 C0 56.28 0 28.56 0 0 Z M77.82202148 17.42333984 C66.76690908 20.32501509 55.78648985 20.394467 44.4375 20.375 C43.60462463 20.3764502 42.77174927 20.37790039 41.91363525 20.37939453 C25.56495744 20.37618016 25.56495744 20.37618016 18.02758789 18.42431641 C15.6475063 17.92623311 13.42475073 17.9339305 11 18 C10.02196722 20.4227411 9.05015822 22.84750891 8.08984375 25.27734375 C7.43868928 26.90406297 6.77011233 28.52422083 6.06640625 30.12890625 C2.67920234 38.15123129 3.34308069 45.19042846 6.55078125 53.2265625 C11.10308018 61.93850925 18.2992632 67.74925836 27 72 C28.15822266 72.61875 28.15822266 72.61875 29.33984375 73.25 C40.55930896 78.35459081 55.6983716 77.75044284 67.25 73.875 C80.54283651 68.6942766 88.87436278 60.839649 94.88671875 47.875 C96.9545654 42.53487671 97.07379481 39.43192781 94.74609375 34.16015625 C93.70375921 32.08854901 92.63307188 30.03097534 91.53515625 27.98828125 C89.53048307 24.08605484 88.25852941 20.19509803 87 16 C83.52891102 16 81.10694171 16.50762297 77.82202148 17.42333984 Z " fill="#FBFBFA" transform="translate(0,0)"/>
<path d="M0 0 C0.5878125 1.8871875 0.5878125 1.8871875 1.1875 3.8125 C2.41542012 7.56710191 3.94557419 11.01926455 5.6875 14.5625 C8.40572917 20.54591909 9.24682124 24.62983281 6.9609375 30.80859375 C1.30516525 43.21021727 -6.3649095 50.93593595 -19 56 C-19.78890625 56.33902344 -20.5778125 56.67804688 -21.390625 57.02734375 C-29.30018446 59.94634784 -37.7031632 59.25987772 -46 59 C-46 58.34 -46 57.68 -46 57 C-41.05 57 -36.1 57 -31 57 C-30.67 55.68 -30.34 54.36 -30 53 C-29.40574219 52.99742188 -28.81148437 52.99484375 -28.19921875 52.9921875 C-19.42175907 52.58266372 -12.71236473 49.15945935 -6.0625 43.5 C-1.21015012 37.61836378 1.09337908 32.30871351 3 25 C-5.68398989 24.45440901 -14.61148403 24.69650195 -21.7265625 30.37890625 C-22.86207305 31.54429866 -23.93826572 32.76701825 -25 34 C-25.66 34 -26.32 34 -27 34 C-26.8453125 32.576875 -26.8453125 32.576875 -26.6875 31.125 C-26.64031895 26.51069362 -28.72410675 23.09488414 -30.90625 19.13671875 C-32 17 -32 17 -32 15 C-36.5672078 14.64763382 -40.59538481 14.65878424 -45 16 C-48.10330749 19.60786623 -49.83005901 23.39863415 -51 28 C-50.75168293 30.17941188 -50.75168293 30.17941188 -50 32 C-49.65939189 33.66519519 -49.32441604 35.33157466 -49 37 C-49.7425 36.236875 -50.485 35.47375 -51.25 34.6875 C-53.4263323 32.5606298 -55.52167796 30.7440044 -58 29 C-57.67 28.01 -57.34 27.02 -57 26 C-56.34 26 -55.68 26 -55 26 C-54.896875 25.319375 -54.79375 24.63875 -54.6875 23.9375 C-53.85274981 20.37084011 -52.50527246 17.33777806 -51 14 C-52.051875 14.04125 -53.10375 14.0825 -54.1875 14.125 C-62.56839462 14.125 -71.04203042 12.59096684 -79 10 C-78.125 2.125 -78.125 2.125 -77 1 C-75.14453125 1.0859375 -75.14453125 1.0859375 -72.8125 1.375 C-71.67748047 1.51035156 -71.67748047 1.51035156 -70.51953125 1.6484375 C-68.79176488 1.88952118 -67.07019314 2.17838619 -65.35693359 2.50708008 C-61.48506675 3.07561093 -57.67414467 3.19848217 -53.76953125 3.23828125 C-52.98502594 3.24775787 -52.20052063 3.2572345 -51.39224243 3.26699829 C-48.86562804 3.29131037 -46.33921444 3.30384882 -43.8125 3.3125 C-42.52885056 3.31892014 -42.52885056 3.31892014 -41.2192688 3.32546997 C-29.88688987 3.35517808 -19.27688037 2.9019585 -8.30859375 -0.22265625 C-5.02512464 -0.99409704 -3.18846303 -0.97306261 0 0 Z " fill="#0E0E0E" transform="translate(88,17)"/>
<path d="M0 0 C1.79244141 0.01740234 1.79244141 0.01740234 3.62109375 0.03515625 C5.41740234 0.04869141 5.41740234 0.04869141 7.25 0.0625 C8.17683594 0.07410156 9.10367188 0.08570312 10.05859375 0.09765625 C11.0966093 1.98413669 12.11342542 3.88229281 13.12109375 5.78515625 C13.68957031 6.84089844 14.25804688 7.89664063 14.84375 8.984375 C16.18263432 12.41553515 16.26914996 13.67895584 15.05859375 17.09765625 C14.24048844 18.59706894 13.38380314 20.07587329 12.49609375 21.53515625 C9.09266148 27.99972157 9.70674426 33.91992659 10.05859375 41.09765625 C5.43859375 41.09765625 0.81859375 41.09765625 -3.94140625 41.09765625 C-3.88339844 40.03546875 -3.82539062 38.97328125 -3.765625 37.87890625 C-3.19691231 27.604059 -3.19691231 27.604059 -7.75 18.67578125 C-9.24329968 16.69777118 -9.75881259 15.58716489 -9.94140625 13.09765625 C-8.76171875 10.1171875 -8.76171875 10.1171875 -7.06640625 6.91015625 C-6.51210938 5.84410156 -5.9578125 4.77804688 -5.38671875 3.6796875 C-3.38998481 0.1125493 -3.38998481 0.1125493 0 0 Z " fill="#F9F9F9" transform="translate(45.94140625,31.90234375)"/>
<path d="M0 0 C7.62654997 0.0991749 14.55968675 2.29704695 20.4296875 7.27734375 C26.20231925 13.51705567 27.41778517 18.96284402 27.35546875 27.30078125 C27.1875 29.375 27.1875 29.375 26.1875 30.375 C17.39341732 31.08951922 9.80268775 26.77034856 2.8671875 21.66796875 C-2.33163174 16.86299945 -5.49403994 10.94175269 -6.125 3.875 C-5.59524215 -0.36306281 -3.93006639 0.14618273 0 0 Z " fill="#F6F6F6" transform="translate(13.8125,40.625)"/>
<path d="M0 0 C-0.63820923 7.65851073 -3.50422296 14.50422296 -9 20 C-16.25343755 25.14167725 -23.94771216 29.28436506 -33 29 C-33.92414865 15.52796628 -33.92414865 15.52796628 -29.54296875 9.7109375 C-22.61321295 2.02680322 -10.6131185 -5.30655925 0 0 Z " fill="#F7F8F7" transform="translate(91,42)"/>
<path d="M0 0 C1.36328125 1.9609375 1.36328125 1.9609375 2.3125 4.375 C2.80169922 5.56222656 2.80169922 5.56222656 3.30078125 6.7734375 C4 9 4 9 4 12 C2.26363281 12.05607422 2.26363281 12.05607422 0.4921875 12.11328125 C-1.04690561 12.17897425 -2.5859667 12.24542042 -4.125 12.3125 C-5.26582031 12.34633789 -5.26582031 12.34633789 -6.4296875 12.38085938 C-11.35960117 12.61460528 -14.61092367 13.57103046 -19 16 C-19.99 16 -20.98 16 -22 16 C-22.83819158 14.37750059 -23.6704116 12.75191503 -24.5 11.125 C-24.9640625 10.22007813 -25.428125 9.31515625 -25.90625 8.3828125 C-27 6 -27 6 -27 4 C-23.44139062 3.129043 -19.87765408 2.28123075 -16.3125 1.4375 C-15.30509766 1.19064453 -14.29769531 0.94378906 -13.25976562 0.68945312 C-12.28330078 0.46064453 -11.30683594 0.23183594 -10.30078125 -0.00390625 C-9.40528564 -0.21861572 -8.50979004 -0.4333252 -7.5871582 -0.65454102 C-4.74686756 -1.03380036 -2.73559093 -0.83116687 0 0 Z " fill="#F4F4F3" transform="translate(88,27)"/>
<path d="M0 0 C8.73390265 0.60785403 17.3459967 1.68141666 26 3 C25.21775257 7.3972938 23.82845741 10.94559445 22 15 C18.93371983 14.56195998 16.13940969 14.05012483 13.21875 13 C9.77931378 11.93143729 6.71401514 11.59473562 3.125 11.375 C1.97257813 11.30023438 0.82015625 11.22546875 -0.3671875 11.1484375 C-1.67042969 11.07496094 -1.67042969 11.07496094 -3 11 C-2.69078116 9.54096742 -2.37751201 8.08279278 -2.0625 6.625 C-1.88847656 5.81289063 -1.71445313 5.00078125 -1.53515625 4.1640625 C-1 2 -1 2 0 0 Z " fill="#F4F4F4" transform="translate(11,28)"/>
<path d="M0 0 C0.99 0 1.98 0 3 0 C6.07539134 5.16226404 8.36402301 9.88833099 7 16 C3.00915768 26.87316284 -3.56996904 36.02083107 -13.9375 41.4375 C-15.94307337 42.32690628 -17.96353664 43.18379841 -20 44 C-20.78890625 44.33902344 -21.5778125 44.67804688 -22.390625 45.02734375 C-30.30018446 47.94634784 -38.7031632 47.25987772 -47 47 C-47 46.34 -47 45.68 -47 45 C-42.05 45 -37.1 45 -32 45 C-31.67 43.68 -31.34 42.36 -31 41 C-30.40574219 40.99742188 -29.81148437 40.99484375 -29.19921875 40.9921875 C-20.42175907 40.58266372 -13.71236473 37.15945935 -7.0625 31.5 C-2.21015012 25.61836378 0.09337908 20.30871351 2 13 C1.34 12.67 0.68 12.34 0 12 C0.66 12 1.32 12 2 12 C1.44687265 7.97007218 0.8441938 3.97977076 0 0 Z " fill="#1E1E1E" transform="translate(89,29)"/>
<path d="M0 0 C0.66 0.99 1.32 1.98 2 3 C1.52949219 3.81726562 1.05898438 4.63453125 0.57421875 5.4765625 C-1.23294243 9.52137487 -1.75734982 13.0103569 -2.1875 17.375 C-2.26935547 18.11105469 -2.35121094 18.84710938 -2.43554688 19.60546875 C-2.63392556 21.40254625 -2.81840577 23.20114893 -3 25 C-7.95 25 -12.9 25 -18 25 C-18 25.66 -18 26.32 -18 27 C-23.45479185 26.43179252 -27.91059256 25.05362055 -33 23 C-33 22.01 -33 21.02 -33 20 C-28.71 20.33 -24.42 20.66 -20 21 C-19.90911247 14.54698539 -20.17425349 8.39953542 -21 2 C-17.71666422 6.28261188 -16.86168702 8.42999183 -16.875 13.875 C-16.87113281 15.44894531 -16.87113281 15.44894531 -16.8671875 17.0546875 C-17 20 -17 20 -18 24 C-13.38 24 -8.76 24 -4 24 C-4.33 22.68 -4.66 21.36 -5 20 C-5.96969822 12.10388593 -4.02512416 6.75645841 0 0 Z " fill="#181918" transform="translate(60,49)"/>
<path d="M0 0 C-2.56695104 3.85042656 -4.38822278 4.21406668 -8.71484375 5.4375 C-15.41294014 6.58437976 -22.2297595 6.2120609 -29 6 C-29 5.34 -29 4.68 -29 4 C-24.05 4 -19.1 4 -14 4 C-13.67 2.68 -13.34 1.36 -13 0 C-11.39679026 -0.19551338 -9.79237014 -0.38111983 -8.1875 -0.5625 C-7.29417969 -0.66691406 -6.40085937 -0.77132812 -5.48046875 -0.87890625 C-3 -1 -3 -1 0 0 Z " fill="#0B0B0B" transform="translate(71,70)"/>
<path d="M0 0 C0.66 0.99 1.32 1.98 2 3 C1.52949219 3.81726562 1.05898438 4.63453125 0.57421875 5.4765625 C-1.23346553 9.52254568 -1.75667661 13.01274437 -2.1875 17.375 C-2.455625 19.89125 -2.72375 22.4075 -3 25 C-8.28 25 -13.56 25 -19 25 C-18.67 24.34 -18.34 23.68 -18 23 C-11.07 23.495 -11.07 23.495 -4 24 C-4.33 22.68 -4.66 21.36 -5 20 C-5.96969822 12.10388593 -4.02512416 6.75645841 0 0 Z " fill="#474747" transform="translate(60,49)"/>
<path d="M0 0 C0.33 0.66 0.66 1.32 1 2 C2.98 2 4.96 2 7 2 C5.68 2.33 4.36 2.66 3 3 C2.01 6.96 1.02 10.92 0 15 C-0.66 14.34 -1.32 13.68 -2 13 C-2.33 15.31 -2.66 17.62 -3 20 C-3.33 20 -3.66 20 -4 20 C-4.4946164 12.45709983 -2.90617391 6.941085 0 0 Z " fill="#3F3F3F" transform="translate(8,25)"/>
<path d="M0 0 C0.66 0.33 1.32 0.66 2 1 C-1.64259617 6.03025185 -3.89130474 8.23526581 -10 10 C-10 8.68 -10 7.36 -10 6 C-9.36191406 5.65066406 -8.72382812 5.30132812 -8.06640625 4.94140625 C-7.24011719 4.48636719 -6.41382812 4.03132813 -5.5625 3.5625 C-4.73878906 3.11003906 -3.91507812 2.65757813 -3.06640625 2.19140625 C-1.07691202 1.16337603 -1.07691202 1.16337603 0 0 Z " fill="#222322" transform="translate(80,62)"/>
<path d="M0 0 C-0.33 0.66 -0.66 1.32 -1 2 C-1.6290625 1.79503906 -2.258125 1.59007812 -2.90625 1.37890625 C-8.30281819 -0.31971235 -13.36659614 -1.47838853 -19 -2 C-19 -2.33 -19 -2.66 -19 -3 C-12.23636935 -4.73426427 -6.05848536 -3.24855436 0 0 Z " fill="#212221" transform="translate(31,43)"/>
<path d="M0 0 C0.66 0.66 1.32 1.32 2 2 C4.44012949 2.24287489 4.44012949 2.24287489 7.125 2.125 C8.03507813 2.10695312 8.94515625 2.08890625 9.8828125 2.0703125 C10.58148438 2.04710937 11.28015625 2.02390625 12 2 C12 2.33 12 2.66 12 3 C8.37 3.66 4.74 4.32 1 5 C1 6.65 1 8.3 1 10 C0.01 10.495 0.01 10.495 -1 11 C-1.02688151 9.35425434 -1.04634123 7.70838587 -1.0625 6.0625 C-1.07410156 5.14597656 -1.08570313 4.22945312 -1.09765625 3.28515625 C-1 1 -1 1 0 0 Z " fill="#050505" transform="translate(6,37)"/>
<path d="M0 0 C0.33 0.99 0.66 1.98 1 3 C-1.31 5.31 -3.62 7.62 -6 10 C-6.99 9.67 -7.98 9.34 -9 9 C-8.06725891 7.87105124 -7.12859878 6.74699124 -6.1875 5.625 C-5.66542969 4.99851562 -5.14335938 4.37203125 -4.60546875 3.7265625 C-3 2 -3 2 0 0 Z " fill="#0F100F" transform="translate(87,57)"/>
<path d="M0 0 C0.33 0 0.66 0 1 0 C1.13277344 0.60328125 1.26554688 1.2065625 1.40234375 1.828125 C1.57894531 2.62734375 1.75554688 3.4265625 1.9375 4.25 C2.11152344 5.03890625 2.28554687 5.8278125 2.46484375 6.640625 C2.947556 8.76878703 3.46163178 10.88532842 4 13 C3.01 13.33 2.02 13.66 1 14 C-1.61895048 9.22426677 -0.83119431 5.15565119 0 0 Z " fill="#202020" transform="translate(7,42)"/>
<path d="M0 0 C2.83374881 3.20336822 3.5205537 5.78087253 4 10 C3.01 9.67 2.02 9.34 1 9 C0.67 6.03 0.34 3.06 0 0 Z " fill="#383837" transform="translate(39,51)"/>
<path d="M0 0 C0 0.66 0 1.32 0 2 C-2.875 2.625 -2.875 2.625 -6 3 C-6.66 2.34 -7.32 1.68 -8 1 C-4.93251126 -0.86240388 -3.40254489 -1.2151946 0 0 Z " fill="#3F3F3E" transform="translate(79,40)"/>
</svg>
